<?xml version="1.0" standalone="no"?>
<svg version="1.0" xmlns="http://www.w3.org/2000/svg"
 width="360" height="360" viewBox="240 250 160 360"
 preserveAspectRatio="xMidYMid meet">
<g transform="translate(0.000000,1024.000000) scale(0.100000,-0.100000)" stroke="none">
<g fill="#b01010">
<path d="M3185 7274 c-22 -9 -73 -17 -114 -19 -114 -5 -138 -30 -140 -150 l-1
-60 -58 -1 c-111 -2 -192 -52 -192 -118 0 -61 24 -71 166 -71 68 0 124 -1 124
-3 0 -5 -47 -68 -91 -122 -20 -25 -48 -70 -63 -100 -14 -30 -36 -71 -48 -90
l-21 -35 36 34 c33 32 36 32 34 11 -1 -12 -19 -43 -41 -69 -22 -25 -33 -40
-26 -33 8 6 18 12 22 12 10 0 -28 -77 -51 -104 -17 -21 -18 -21 34 0 41 16 -3
-67 -50 -96 -43 -27 -36 -44 17 -37 l39 5 -36 -39 c-37 -41 -44 -69 -21 -88
23 -19 8 -45 -77 -133 -56 -58 -100 -93 -141 -113 -55 -27 -71 -29 -215 -36
-144 -6 -162 -9 -229 -37 -88 -37 -173 -100 -213 -159 l-30 -43 -72 0 c-134 0
-257 -42 -332 -111 -64 -59 -81 -93 -23 -46 64 53 69 46 11 -16 -63 -67 -85
-122 -81 -207 2 -42 7 -64 14 -63 6 1 14 -16 18 -38 9 -56 28 -90 81 -143 45
-46 57 -44 30 4 -19 33 -19 45 1 29 24 -20 44 -65 44 -101 0 -62 -66 -136
-140 -156 l-35 -9 42 -7 c48 -9 97 -1 131 21 22 14 23 13 13 -6 -6 -10 -26
-31 -43 -46 l-33 -27 40 7 c123 21 214 134 216 269 0 44 2 48 10 26 6 -14 9
-51 7 -83 -2 -31 -2 -57 0 -57 2 0 10 16 18 35 25 60 18 137 -19 223 -19 43
-37 93 -41 112 l-6 35 30 -48 c16 -26 31 -47 33 -47 2 0 -2 24 -10 53 -25 92
1 191 61 230 l23 16 11 -84 c11 -84 36 -167 85 -280 50 -115 29 -214 -65 -307
-69 -69 -72 -90 -28 -169 80 -147 120 -232 145 -314 24 -79 29 -87 38 -67 17
36 26 25 29 -35 3 -50 6 -59 28 -70 32 -16 182 -17 197 -2 20 20 -23 88 -111
174 -70 69 -87 92 -116 160 -44 105 -51 189 -21 239 12 19 61 64 110 99 63 46
99 81 129 127 32 47 43 58 48 46 11 -29 -3 -106 -24 -129 -51 -56 -48 -103 8
-132 18 -9 108 -91 201 -183 l168 -167 -14 -40 c-21 -58 -18 -73 14 -89 75
-39 201 -43 201 -7 0 9 -20 49 -44 88 -24 40 -47 87 -51 105 -11 46 -30 72
-78 104 -63 41 -186 164 -209 208 -12 24 -17 48 -13 63 3 13 37 58 76 99 73
80 111 142 129 216 l12 45 88 6 c77 5 190 34 271 71 13 5 19 -1 28 -25 25 -71
2 -132 -66 -182 -57 -41 -93 -101 -92 -153 l1 -39 8 34 c9 36 39 82 58 89 6 2
1 -16 -13 -40 -33 -60 -40 -109 -21 -144 l15 -29 -5 35 c-5 33 -4 32 19 -15
13 -27 31 -56 41 -64 15 -13 16 -12 6 13 -9 24 -7 28 16 36 34 13 74 13 74 -1
0 -19 32 13 46 46 9 20 13 24 14 12 0 -34 25 -11 41 38 14 39 18 44 23 28 4
-12 24 -33 46 -47 44 -29 51 -56 24 -94 -24 -34 -11 -78 46 -167 64 -97 104
-177 124 -246 21 -71 33 -90 42 -66 13 34 24 16 24 -39 0 -53 1 -55 35 -70 20
-8 67 -14 110 -14 119 0 115 25 -29 179 -133 142 -201 297 -166 381 12 30 191
200 210 200 6 0 10 -10 10 -22 0 -22 -8 -40 -53 -118 -10 -18 -15 -39 -12 -51
4 -10 41 -45 83 -76 42 -31 132 -112 199 -179 l122 -123 -15 -37 c-19 -44 -12
-79 19 -95 28 -16 199 -18 204 -3 2 6 -21 47 -51 92 -29 44 -57 97 -60 117 -6
28 -18 43 -64 76 -118 86 -222 202 -222 248 0 18 21 55 59 106 80 105 110 171
127 274 8 47 14 89 14 93 0 3 24 14 53 24 28 9 73 27 98 40 44 22 46 22 85 5
21 -10 97 -39 167 -66 71 -27 131 -55 135 -63 9 -26 -48 -121 -102 -168 -50
-44 -61 -47 -109 -28 -26 9 -84 -53 -107 -113 -11 -31 -19 -62 -16 -70 12 -30
135 -8 235 42 42 22 56 37 94 103 25 42 74 109 110 149 36 39 68 80 71 91 10
31 -9 67 -56 103 -62 49 -99 89 -85 94 7 2 30 6 52 9 22 3 82 26 133 51 52 25
97 45 101 45 17 0 31 -55 31 -123 0 -56 -6 -83 -25 -122 -13 -27 -25 -55 -25
-60 0 -6 -15 -19 -34 -29 -42 -22 -61 -56 -59 -106 2 -42 27 -110 41 -110 21
0 94 63 119 102 15 24 38 56 52 71 25 28 26 32 30 200 7 323 9 296 -19 319
-20 16 -34 19 -70 14 -24 -3 -82 -9 -129 -13 -80 -6 -84 -5 -76 13 4 10 10 46
12 79 4 48 -1 78 -25 150 -17 50 -34 124 -37 165 -13 135 -33 217 -85 339 -27
66 -53 140 -56 165 l-7 46 39 -13 c27 -10 40 -21 44 -38 13 -52 118 -90 154
-54 8 8 29 15 46 15 24 0 32 6 40 28 6 15 15 35 20 44 21 37 11 71 -31 113
-102 100 -159 170 -159 198 0 18 -14 42 -40 71 -22 24 -40 46 -40 48 0 3 18 8
41 12 88 14 179 88 179 146 0 16 -4 32 -10 35 -5 3 -47 -6 -93 -20 -138 -42
-148 -37 -188 85 -33 99 -57 116 -126 89 -15 -7 -66 -15 -112 -19 -75 -6 -87
-10 -108 -34 -20 -23 -23 -38 -23 -102 l0 -74 -57 0 c-78 0 -127 -15 -161 -50
-50 -49 -48 -108 5 -128 43 -16 103 -20 177 -13 36 4 66 4 66 0 0 -3 -29 -46
-65 -94 -36 -48 -65 -93 -65 -100 0 -7 -16 -37 -36 -66 -56 -84 -61 -98 -19
-59 21 19 35 29 31 23 -4 -7 -2 -13 3 -13 6 0 -9 -27 -34 -59 -50 -65 -53 -73
-27 -64 15 6 16 5 2 -13 -8 -10 -23 -29 -34 -41 -22 -26 -11 -30 20 -8 12 8
24 12 27 9 15 -16 -34 -89 -76 -115 -27 -16 -29 -19 -12 -25 10 -4 35 -3 57 3
21 6 38 6 38 2 0 -5 -4 -9 -9 -9 -5 0 -23 -13 -40 -29 -32 -30 -43 -85 -19
-93 38 -13 -110 -178 -204 -228 -54 -29 -75 -35 -150 -38 -87 -4 -88 -4 -97
21 -6 15 -15 75 -21 134 -13 131 -30 198 -71 289 -42 91 -69 171 -69 202 0 20
4 23 23 18 12 -3 30 -6 40 -6 10 0 17 -8 17 -19 0 -35 12 -52 53 -71 51 -25
72 -25 89 -1 8 11 28 21 48 23 30 3 38 9 57 48 32 66 29 83 -22 133 -25 25
-45 52 -45 61 0 21 -19 20 -43 -1 -18 -17 -19 -17 -29 1 -6 10 -25 35 -43 55
-50 56 -60 80 -41 99 15 15 16 14 16 -8 0 -28 93 -140 105 -128 5 4 -13 30
-38 57 -26 28 -47 60 -47 72 0 12 -16 39 -35 60 -41 45 -44 59 -12 59 35 0
141 55 166 85 30 39 37 73 19 92 -14 13 -26 12 -111 -13 -52 -15 -102 -24
-110 -21 -18 7 -57 80 -77 142 -14 44 -37 75 -54 74 -6 0 -29 -7 -51 -15z
m355 -189 c0 -11 -146 -75 -205 -90 -77 -20 -110 -19 -274 5 -75 10 -152 21
-171 23 -20 2 -9 4 27 5 34 1 106 -3 160 -9 75 -9 115 -8 168 1 39 6 95 15
125 20 30 4 78 17 105 28 53 22 65 25 65 17z m1180 -30 c-45 -33 -124 -62
-205 -75 -65 -10 -161 -4 -287 20 -28 6 -76 11 -107 11 l-56 2 45 7 c25 4 99
3 164 -3 91 -8 137 -7 190 2 39 7 93 15 120 17 27 3 72 13 100 24 69 25 76 24
36 -5z m-1400 -201 c0 -2 -12 -4 -26 -4 -14 0 -23 4 -20 9 6 8 46 4 46 -5z
m1210 -4 c0 -5 -16 -10 -35 -10 -19 0 -35 5 -35 10 0 6 16 10 35 10 19 0 35
-4 35 -10z m115 -44 c0 -14 21 -46 52 -79 40 -43 49 -58 39 -66 -10 -8 -26 4
-64 50 -50 59 -63 91 -42 104 6 4 7 12 4 18 -4 7 -3 8 1 4 5 -4 9 -18 10 -31z
m-1340 -5 c3 -5 1 -13 -5 -16 -15 -9 -43 3 -35 15 8 13 32 13 40 1z m1199 3
c18 -7 12 -24 -10 -24 -8 0 -14 7 -14 15 0 17 2 18 24 9z m-904 -205 c40 -35
42 -38 15 -27 -33 13 -75 47 -75 60 0 15 15 7 60 -33z m1250 -35 c0 -2 -12 1
-27 7 -35 13 -63 38 -63 56 0 9 17 0 45 -23 25 -20 45 -38 45 -40z m-1400 -88
c0 -3 -4 -8 -10 -11 -5 -3 -10 -1 -10 4 0 6 5 11 10 11 6 0 10 -2 10 -4z m70
-41 c7 -9 10 -18 7 -22 -8 -7 -37 15 -37 28 0 14 16 11 30 -6z m1220 -18 c0
-4 -9 -3 -20 3 -11 6 -20 15 -20 20 0 6 9 5 20 -2 11 -7 20 -16 20 -21z
m-1565 -76 c51 -78 80 -160 90 -251 3 -36 4 -63 2 -60 -3 3 -22 50 -42 105
-21 55 -55 139 -76 186 -22 48 -39 90 -39 93 0 17 25 -12 65 -73z m1211 8 c50
-68 82 -160 89 -256 l5 -78 -24 65 c-13 36 -46 120 -75 186 -28 67 -51 125
-51 128 0 18 23 0 56 -45z m-1650 -104 c-11 -8 -29 -15 -40 -14 -15 0 -10 4
14 13 46 18 48 18 26 1z m203 -315 c35 -6 85 -22 111 -35 45 -23 110 -85 110
-105 0 -16 -36 -11 -61 9 -47 36 -149 76 -134 51 15 -24 -46 -7 -89 25 -48 37
-55 50 -33 58 18 8 27 8 96 -3z m1223 0 c73 -11 121 -34 170 -80 45 -43 51
-76 13 -75 -13 1 -33 9 -44 19 -12 11 -46 21 -86 26 -67 8 -99 23 -147 68 -55
51 -28 63 94 42z m-705 -150 c-3 -11 -2 -20 2 -20 8 0 9 -3 16 -70 l5 -45 -19
50 c-22 57 -26 105 -10 105 6 0 9 -9 6 -20z m1228 -77 c4 -19 3 -33 -3 -33 -9
0 -22 47 -22 79 1 14 2 14 9 1 5 -8 12 -30 16 -47z m280 -163 c7 -12 -2 -12
-30 0 -19 8 -19 9 2 9 12 1 25 -3 28 -9z m-1208 -6 c-3 -3 -12 -4 -19 -1 -8 3
-5 6 6 6 11 1 17 -2 13 -5z m-1567 -210 c23 -47 26 -134 5 -179 l-13 -30 -1
48 c-2 80 -19 129 -77 207 -30 41 -54 84 -54 94 0 29 114 -85 140 -140z m2278
44 c48 -45 103 -97 122 -116 l35 -34 -30 15 c-65 33 -255 187 -255 208 0 5 9
9 21 9 12 0 56 -34 107 -82z m-1225 28 c72 -58 181 -134 209 -146 13 -5 17 -9
10 -9 -43 -3 -319 170 -306 191 11 17 35 7 87 -36z m-1760 -229 c-12 -19 -23
19 -22 78 l1 60 13 -64 c8 -35 12 -68 8 -74z m1994 117 c-3 -3 -12 -4 -19 -1
-8 3 -5 6 6 6 11 1 17 -2 13 -5z m38 -54 c13 -6 15 -9 5 -9 -8 0 -22 4 -30 9
-18 12 -2 12 25 0z m1191 -71 c15 -26 -6 -15 -37 18 l-34 36 32 -22 c18 -12
35 -27 39 -32z m-1417 -208 c36 -69 38 -82 11 -106 -11 -10 -20 -26 -20 -37 0
-29 -15 -21 -28 15 -14 38 -16 187 -3 187 4 0 22 -27 40 -59z m165 -169 c3 -5
-6 -21 -20 -38 -20 -23 -23 -24 -14 -6 6 13 9 30 6 38 -6 15 19 20 28 6z m41
-388 c15 -25 24 -48 21 -51 -3 -4 -8 -4 -10 -2 -6 7 -45 99 -41 99 2 0 15 -21
30 -46z m-1495 -6 c11 -23 18 -43 16 -46 -4 -4 -46 71 -46 83 0 15 12 1 30
-37z"/>
<path d="M5775 7046 c-87 -17 -167 -47 -227 -85 -106 -68 -200 -247 -332 -639
-132 -392 -134 -487 -9 -554 75 -40 144 -52 294 -51 286 3 440 79 539 265 l31
58 -115 0 c-108 0 -115 -1 -121 -21 -4 -12 -23 -39 -42 -60 -40 -45 -107 -69
-187 -69 -95 0 -120 31 -103 124 8 47 224 653 266 747 43 96 87 129 175 129
96 0 105 -29 51 -170 -19 -50 -35 -94 -35 -97 0 -3 69 -4 154 -1 177 5 198 13
254 90 38 54 91 199 99 274 5 43 3 52 -13 58 -11 5 -152 10 -314 12 -223 3
-312 0 -365 -10z"/>
</g>
</g>
</svg>