<?xml version="1.0" standalone="no"?>
<!DOCTYPE svg PUBLIC "-//W3C//DTD SVG 20010904//EN"
 "http://www.w3.org/TR/2001/REC-SVG-20010904/DTD/svg10.dtd">
<svg version="1.0" xmlns="http://www.w3.org/2000/svg"
 width="1536" height="400" viewBox="280 220 1256 418"
 preserveAspectRatio="xMidYMid meet">

<g transform="translate(0.000000,1024.000000) scale(0.100000,-0.100000)" stroke="none">
<g fill="#b01010">
<path d="M3185 7274 c-22 -9 -73 -17 -114 -19 -114 -5 -138 -30 -140 -150 l-1
-60 -58 -1 c-111 -2 -192 -52 -192 -118 0 -61 24 -71 166 -71 68 0 124 -1 124
-3 0 -5 -47 -68 -91 -122 -20 -25 -48 -70 -63 -100 -14 -30 -36 -71 -48 -90
l-21 -35 36 34 c33 32 36 32 34 11 -1 -12 -19 -43 -41 -69 -22 -25 -33 -40
-26 -33 8 6 18 12 22 12 10 0 -28 -77 -51 -104 -17 -21 -18 -21 34 0 41 16 -3
-67 -50 -96 -43 -27 -36 -44 17 -37 l39 5 -36 -39 c-37 -41 -44 -69 -21 -88
23 -19 8 -45 -77 -133 -56 -58 -100 -93 -141 -113 -55 -27 -71 -29 -215 -36
-144 -6 -162 -9 -229 -37 -88 -37 -173 -100 -213 -159 l-30 -43 -72 0 c-134 0
-257 -42 -332 -111 -64 -59 -81 -93 -23 -46 64 53 69 46 11 -16 -63 -67 -85
-122 -81 -207 2 -42 7 -64 14 -63 6 1 14 -16 18 -38 9 -56 28 -90 81 -143 45
-46 57 -44 30 4 -19 33 -19 45 1 29 24 -20 44 -65 44 -101 0 -62 -66 -136
-140 -156 l-35 -9 42 -7 c48 -9 97 -1 131 21 22 14 23 13 13 -6 -6 -10 -26
-31 -43 -46 l-33 -27 40 7 c123 21 214 134 216 269 0 44 2 48 10 26 6 -14 9
-51 7 -83 -2 -31 -2 -57 0 -57 2 0 10 16 18 35 25 60 18 137 -19 223 -19 43
-37 93 -41 112 l-6 35 30 -48 c16 -26 31 -47 33 -47 2 0 -2 24 -10 53 -25 92
1 191 61 230 l23 16 11 -84 c11 -84 36 -167 85 -280 50 -115 29 -214 -65 -307
-69 -69 -72 -90 -28 -169 80 -147 120 -232 145 -314 24 -79 29 -87 38 -67 17
36 26 25 29 -35 3 -50 6 -59 28 -70 32 -16 182 -17 197 -2 20 20 -23 88 -111
174 -70 69 -87 92 -116 160 -44 105 -51 189 -21 239 12 19 61 64 110 99 63 46
99 81 129 127 32 47 43 58 48 46 11 -29 -3 -106 -24 -129 -51 -56 -48 -103 8
-132 18 -9 108 -91 201 -183 l168 -167 -14 -40 c-21 -58 -18 -73 14 -89 75
-39 201 -43 201 -7 0 9 -20 49 -44 88 -24 40 -47 87 -51 105 -11 46 -30 72
-78 104 -63 41 -186 164 -209 208 -12 24 -17 48 -13 63 3 13 37 58 76 99 73
80 111 142 129 216 l12 45 88 6 c77 5 190 34 271 71 13 5 19 -1 28 -25 25 -71
2 -132 -66 -182 -57 -41 -93 -101 -92 -153 l1 -39 8 34 c9 36 39 82 58 89 6 2
1 -16 -13 -40 -33 -60 -40 -109 -21 -144 l15 -29 -5 35 c-5 33 -4 32 19 -15
13 -27 31 -56 41 -64 15 -13 16 -12 6 13 -9 24 -7 28 16 36 34 13 74 13 74 -1
0 -19 32 13 46 46 9 20 13 24 14 12 0 -34 25 -11 41 38 14 39 18 44 23 28 4
-12 24 -33 46 -47 44 -29 51 -56 24 -94 -24 -34 -11 -78 46 -167 64 -97 104
-177 124 -246 21 -71 33 -90 42 -66 13 34 24 16 24 -39 0 -53 1 -55 35 -70 20
-8 67 -14 110 -14 119 0 115 25 -29 179 -133 142 -201 297 -166 381 12 30 191
200 210 200 6 0 10 -10 10 -22 0 -22 -8 -40 -53 -118 -10 -18 -15 -39 -12 -51
4 -10 41 -45 83 -76 42 -31 132 -112 199 -179 l122 -123 -15 -37 c-19 -44 -12
-79 19 -95 28 -16 199 -18 204 -3 2 6 -21 47 -51 92 -29 44 -57 97 -60 117 -6
28 -18 43 -64 76 -118 86 -222 202 -222 248 0 18 21 55 59 106 80 105 110 171
127 274 8 47 14 89 14 93 0 3 24 14 53 24 28 9 73 27 98 40 44 22 46 22 85 5
21 -10 97 -39 167 -66 71 -27 131 -55 135 -63 9 -26 -48 -121 -102 -168 -50
-44 -61 -47 -109 -28 -26 9 -84 -53 -107 -113 -11 -31 -19 -62 -16 -70 12 -30
135 -8 235 42 42 22 56 37 94 103 25 42 74 109 110 149 36 39 68 80 71 91 10
31 -9 67 -56 103 -62 49 -99 89 -85 94 7 2 30 6 52 9 22 3 82 26 133 51 52 25
97 45 101 45 17 0 31 -55 31 -123 0 -56 -6 -83 -25 -122 -13 -27 -25 -55 -25
-60 0 -6 -15 -19 -34 -29 -42 -22 -61 -56 -59 -106 2 -42 27 -110 41 -110 21
0 94 63 119 102 15 24 38 56 52 71 25 28 26 32 30 200 7 323 9 296 -19 319
-20 16 -34 19 -70 14 -24 -3 -82 -9 -129 -13 -80 -6 -84 -5 -76 13 4 10 10 46
12 79 4 48 -1 78 -25 150 -17 50 -34 124 -37 165 -13 135 -33 217 -85 339 -27
66 -53 140 -56 165 l-7 46 39 -13 c27 -10 40 -21 44 -38 13 -52 118 -90 154
-54 8 8 29 15 46 15 24 0 32 6 40 28 6 15 15 35 20 44 21 37 11 71 -31 113
-102 100 -159 170 -159 198 0 18 -14 42 -40 71 -22 24 -40 46 -40 48 0 3 18 8
41 12 88 14 179 88 179 146 0 16 -4 32 -10 35 -5 3 -47 -6 -93 -20 -138 -42
-148 -37 -188 85 -33 99 -57 116 -126 89 -15 -7 -66 -15 -112 -19 -75 -6 -87
-10 -108 -34 -20 -23 -23 -38 -23 -102 l0 -74 -57 0 c-78 0 -127 -15 -161 -50
-50 -49 -48 -108 5 -128 43 -16 103 -20 177 -13 36 4 66 4 66 0 0 -3 -29 -46
-65 -94 -36 -48 -65 -93 -65 -100 0 -7 -16 -37 -36 -66 -56 -84 -61 -98 -19
-59 21 19 35 29 31 23 -4 -7 -2 -13 3 -13 6 0 -9 -27 -34 -59 -50 -65 -53 -73
-27 -64 15 6 16 5 2 -13 -8 -10 -23 -29 -34 -41 -22 -26 -11 -30 20 -8 12 8
24 12 27 9 15 -16 -34 -89 -76 -115 -27 -16 -29 -19 -12 -25 10 -4 35 -3 57 3
21 6 38 6 38 2 0 -5 -4 -9 -9 -9 -5 0 -23 -13 -40 -29 -32 -30 -43 -85 -19
-93 38 -13 -110 -178 -204 -228 -54 -29 -75 -35 -150 -38 -87 -4 -88 -4 -97
21 -6 15 -15 75 -21 134 -13 131 -30 198 -71 289 -42 91 -69 171 -69 202 0 20
4 23 23 18 12 -3 30 -6 40 -6 10 0 17 -8 17 -19 0 -35 12 -52 53 -71 51 -25
72 -25 89 -1 8 11 28 21 48 23 30 3 38 9 57 48 32 66 29 83 -22 133 -25 25
-45 52 -45 61 0 21 -19 20 -43 -1 -18 -17 -19 -17 -29 1 -6 10 -25 35 -43 55
-50 56 -60 80 -41 99 15 15 16 14 16 -8 0 -28 93 -140 105 -128 5 4 -13 30
-38 57 -26 28 -47 60 -47 72 0 12 -16 39 -35 60 -41 45 -44 59 -12 59 35 0
141 55 166 85 30 39 37 73 19 92 -14 13 -26 12 -111 -13 -52 -15 -102 -24
-110 -21 -18 7 -57 80 -77 142 -14 44 -37 75 -54 74 -6 0 -29 -7 -51 -15z
m355 -189 c0 -11 -146 -75 -205 -90 -77 -20 -110 -19 -274 5 -75 10 -152 21
-171 23 -20 2 -9 4 27 5 34 1 106 -3 160 -9 75 -9 115 -8 168 1 39 6 95 15
125 20 30 4 78 17 105 28 53 22 65 25 65 17z m1180 -30 c-45 -33 -124 -62
-205 -75 -65 -10 -161 -4 -287 20 -28 6 -76 11 -107 11 l-56 2 45 7 c25 4 99
3 164 -3 91 -8 137 -7 190 2 39 7 93 15 120 17 27 3 72 13 100 24 69 25 76 24
36 -5z m-1400 -201 c0 -2 -12 -4 -26 -4 -14 0 -23 4 -20 9 6 8 46 4 46 -5z
m1210 -4 c0 -5 -16 -10 -35 -10 -19 0 -35 5 -35 10 0 6 16 10 35 10 19 0 35
-4 35 -10z m115 -44 c0 -14 21 -46 52 -79 40 -43 49 -58 39 -66 -10 -8 -26 4
-64 50 -50 59 -63 91 -42 104 6 4 7 12 4 18 -4 7 -3 8 1 4 5 -4 9 -18 10 -31z
m-1340 -5 c3 -5 1 -13 -5 -16 -15 -9 -43 3 -35 15 8 13 32 13 40 1z m1199 3
c18 -7 12 -24 -10 -24 -8 0 -14 7 -14 15 0 17 2 18 24 9z m-904 -205 c40 -35
42 -38 15 -27 -33 13 -75 47 -75 60 0 15 15 7 60 -33z m1250 -35 c0 -2 -12 1
-27 7 -35 13 -63 38 -63 56 0 9 17 0 45 -23 25 -20 45 -38 45 -40z m-1400 -88
c0 -3 -4 -8 -10 -11 -5 -3 -10 -1 -10 4 0 6 5 11 10 11 6 0 10 -2 10 -4z m70
-41 c7 -9 10 -18 7 -22 -8 -7 -37 15 -37 28 0 14 16 11 30 -6z m1220 -18 c0
-4 -9 -3 -20 3 -11 6 -20 15 -20 20 0 6 9 5 20 -2 11 -7 20 -16 20 -21z
m-1565 -76 c51 -78 80 -160 90 -251 3 -36 4 -63 2 -60 -3 3 -22 50 -42 105
-21 55 -55 139 -76 186 -22 48 -39 90 -39 93 0 17 25 -12 65 -73z m1211 8 c50
-68 82 -160 89 -256 l5 -78 -24 65 c-13 36 -46 120 -75 186 -28 67 -51 125
-51 128 0 18 23 0 56 -45z m-1650 -104 c-11 -8 -29 -15 -40 -14 -15 0 -10 4
14 13 46 18 48 18 26 1z m203 -315 c35 -6 85 -22 111 -35 45 -23 110 -85 110
-105 0 -16 -36 -11 -61 9 -47 36 -149 76 -134 51 15 -24 -46 -7 -89 25 -48 37
-55 50 -33 58 18 8 27 8 96 -3z m1223 0 c73 -11 121 -34 170 -80 45 -43 51
-76 13 -75 -13 1 -33 9 -44 19 -12 11 -46 21 -86 26 -67 8 -99 23 -147 68 -55
51 -28 63 94 42z m-705 -150 c-3 -11 -2 -20 2 -20 8 0 9 -3 16 -70 l5 -45 -19
50 c-22 57 -26 105 -10 105 6 0 9 -9 6 -20z m1228 -77 c4 -19 3 -33 -3 -33 -9
0 -22 47 -22 79 1 14 2 14 9 1 5 -8 12 -30 16 -47z m280 -163 c7 -12 -2 -12
-30 0 -19 8 -19 9 2 9 12 1 25 -3 28 -9z m-1208 -6 c-3 -3 -12 -4 -19 -1 -8 3
-5 6 6 6 11 1 17 -2 13 -5z m-1567 -210 c23 -47 26 -134 5 -179 l-13 -30 -1
48 c-2 80 -19 129 -77 207 -30 41 -54 84 -54 94 0 29 114 -85 140 -140z m2278
44 c48 -45 103 -97 122 -116 l35 -34 -30 15 c-65 33 -255 187 -255 208 0 5 9
9 21 9 12 0 56 -34 107 -82z m-1225 28 c72 -58 181 -134 209 -146 13 -5 17 -9
10 -9 -43 -3 -319 170 -306 191 11 17 35 7 87 -36z m-1760 -229 c-12 -19 -23
19 -22 78 l1 60 13 -64 c8 -35 12 -68 8 -74z m1994 117 c-3 -3 -12 -4 -19 -1
-8 3 -5 6 6 6 11 1 17 -2 13 -5z m38 -54 c13 -6 15 -9 5 -9 -8 0 -22 4 -30 9
-18 12 -2 12 25 0z m1191 -71 c15 -26 -6 -15 -37 18 l-34 36 32 -22 c18 -12
35 -27 39 -32z m-1417 -208 c36 -69 38 -82 11 -106 -11 -10 -20 -26 -20 -37 0
-29 -15 -21 -28 15 -14 38 -16 187 -3 187 4 0 22 -27 40 -59z m165 -169 c3 -5
-6 -21 -20 -38 -20 -23 -23 -24 -14 -6 6 13 9 30 6 38 -6 15 19 20 28 6z m41
-388 c15 -25 24 -48 21 -51 -3 -4 -8 -4 -10 -2 -6 7 -45 99 -41 99 2 0 15 -21
30 -46z m-1495 -6 c11 -23 18 -43 16 -46 -4 -4 -46 71 -46 83 0 15 12 1 30
-37z"/>
<path d="M5775 7046 c-87 -17 -167 -47 -227 -85 -106 -68 -200 -247 -332 -639
-132 -392 -134 -487 -9 -554 75 -40 144 -52 294 -51 286 3 440 79 539 265 l31
58 -115 0 c-108 0 -115 -1 -121 -21 -4 -12 -23 -39 -42 -60 -40 -45 -107 -69
-187 -69 -95 0 -120 31 -103 124 8 47 224 653 266 747 43 96 87 129 175 129
96 0 105 -29 51 -170 -19 -50 -35 -94 -35 -97 0 -3 69 -4 154 -1 177 5 198 13
254 90 38 54 91 199 99 274 5 43 3 52 -13 58 -11 5 -152 10 -314 12 -223 3
-312 0 -365 -10z"/>
<path d="M11450 7053 c-160 -11 -274 -25 -290 -35 -20 -13 -65 -106 -56 -115
2 -3 38 -8 78 -11 l73 -7 -2 -32 c-2 -17 -48 -165 -104 -330 -55 -164 -138
-408 -184 -543 -81 -240 -82 -245 -61 -254 11 -4 161 -6 331 -3 389 7 486 24
617 108 87 56 178 209 194 328 14 104 -42 192 -150 235 l-60 24 40 7 c21 4 71
22 109 40 148 68 243 229 233 393 -4 60 -7 67 -45 102 -48 45 -131 74 -255 90
-75 9 -357 11 -468 3z m358 -174 c24 -8 34 -20 43 -49 10 -33 9 -49 -10 -108
-12 -38 -37 -95 -55 -127 -45 -82 -89 -105 -204 -105 -76 0 -83 2 -76 18 4 9
35 99 68 199 l61 183 71 0 c39 0 85 -5 102 -11z m-159 -554 c48 -24 53 -73 20
-181 -38 -122 -76 -184 -137 -221 -31 -19 -51 -23 -129 -23 -51 0 -93 3 -93 7
0 4 33 103 72 220 l73 213 83 0 c53 0 93 -5 111 -15z"/>
<path d="M9230 6842 c-20 -9 -48 -38 -65 -64 l-30 -47 -1314 -3 -1313 -3 -19
-50 c-10 -27 -19 -51 -19 -52 0 -2 592 -3 1316 -3 724 0 1314 -4 1312 -8 -1
-4 -12 -31 -22 -60 l-20 -52 -47 0 c-51 0 -45 7 -86 -97 -3 -9 5 -13 23 -13
62 0 62 -4 -14 -211 -85 -234 -102 -291 -102 -339 0 -68 60 -100 187 -100 174
0 277 53 308 158 l7 23 -41 -20 c-48 -25 -129 -29 -137 -6 -6 16 28 122 110
345 l54 145 56 3 56 3 25 49 c14 27 25 52 25 55 0 3 -27 5 -61 5 -54 0 -60 2
-54 18 4 9 14 36 22 60 l15 42 747 0 748 0 12 41 c7 23 15 47 18 55 4 12 -106
14 -736 14 -408 0 -741 2 -741 4 0 2 9 25 20 51 33 76 34 75 -92 75 -88 0
-121 -4 -148 -18z"/>
<path d="M12470 6503 c-192 -30 -264 -81 -335 -236 -93 -205 -127 -379 -86
-444 39 -62 147 -93 332 -93 198 0 338 49 409 145 49 66 59 87 110 235 47 138
61 239 40 290 -28 67 -170 111 -347 109 -54 -1 -109 -3 -123 -6z m171 -113
c31 -17 23 -65 -44 -261 -93 -269 -101 -280 -197 -287 -56 -4 -60 -3 -71 21
-10 23 -3 53 62 243 41 120 83 229 93 242 35 44 113 65 157 42z"/>
<path d="M6429 6481 c-156 -43 -205 -104 -295 -367 -74 -214 -67 -285 32 -341
94 -53 357 -58 510 -9 148 47 211 132 289 391 61 199 43 267 -84 317 -80 31
-353 37 -452 9z m282 -107 c11 -13 10 -25 -3 -72 -27 -99 -129 -384 -145 -409
-33 -50 -133 -72 -168 -36 -22 22 -19 38 62 273 81 236 98 260 186 260 38 0
59 -5 68 -16z"/>
<path d="M8520 6494 c-53 -9 -146 -37 -173 -51 l-29 -15 7 31 7 31 -170 0
c-146 0 -171 -2 -176 -16 -11 -28 -7 -42 14 -47 11 -3 20 -14 20 -25 0 -21
-65 -216 -159 -475 -34 -93 -61 -173 -61 -178 0 -15 276 -7 290 7 14 14 42 89
120 319 32 94 64 182 71 198 30 66 193 114 213 62 3 -8 -20 -88 -50 -177 -104
-304 -106 -311 -97 -343 14 -50 60 -67 173 -63 119 4 180 31 224 96 30 46 30
60 -2 43 -33 -18 -82 -14 -82 6 0 9 32 112 70 229 39 116 70 227 70 245 0 80
-53 117 -176 123 -43 3 -90 3 -104 0z"/>
<path d="M13165 6493 c-43 -11 -99 -88 -75 -103 10 -6 1 -40 -34 -136 -140
-380 -146 -409 -102 -457 38 -41 93 -50 261 -44 83 3 163 10 179 16 16 6 30
10 32 8 2 -2 -12 -43 -31 -92 -64 -163 -90 -176 -380 -186 -115 -4 -667 -8
-1226 -8 l-1016 -1 -24 -77 c-13 -43 -25 -84 -27 -90 -5 -17 2495 -19 2614 -2
119 16 175 42 242 108 93 94 92 92 382 909 l57 162 -160 -2 -160 -3 -10 -30
c-5 -16 -24 -70 -42 -120 -19 -49 -57 -155 -86 -235 -28 -80 -61 -156 -73
-169 -33 -37 -94 -61 -159 -61 -95 0 -95 -2 22 329 56 156 101 285 101 287 0
6 -262 2 -285 -3z"/>
<path d="M7240 6483 c-101 -4 -118 -12 -146 -65 -13 -25 -13 -28 1 -28 8 0 15
-4 15 -8 0 -4 -23 -73 -51 -152 -86 -244 -119 -348 -119 -379 0 -82 43 -111
168 -111 84 0 170 18 231 50 35 17 40 18 52 4 24 -30 68 -44 133 -44 85 0 163
17 203 43 28 19 87 96 79 104 -1 2 -19 -4 -39 -12 -20 -8 -43 -15 -51 -15 -35
0 -25 46 68 326 53 157 96 287 96 290 0 2 -63 4 -140 4 -77 0 -140 -1 -140 -3
0 -8 -182 -525 -191 -543 -18 -36 -112 -80 -145 -67 -26 10 -15 60 75 329 49
148 87 272 85 276 -3 4 -24 7 -47 6 -23 -1 -85 -4 -137 -5z"/>
<path d="M9502 6465 c-15 -33 -16 -32 8 -38 11 -3 20 -14 20 -24 0 -21 -43
-151 -149 -447 -39 -109 -71 -202 -71 -207 0 -10 205 -12 261 -3 l37 6 72 217
c39 119 81 232 91 251 47 83 181 128 242 80 l26 -21 27 46 c31 53 43 127 24
150 -29 35 -183 10 -239 -39 l-24 -21 6 38 6 37 -163 0 -163 0 -11 -25z"/>
<path d="M10146 6448 c-33 -34 -38 -43 -23 -46 9 -2 17 -9 17 -15 0 -7 -36
-115 -80 -241 -106 -304 -106 -353 -4 -386 45 -15 273 -8 318 9 16 6 31 10 33
7 6 -6 -54 -171 -72 -200 -9 -14 -37 -35 -63 -47 -40 -20 -69 -24 -226 -30
-100 -4 -1237 -8 -2528 -8 l-2348 -1 0 -90 0 -90 2554 0 c2750 0 2634 -2 2735
49 95 49 169 161 234 351 20 58 88 257 151 443 l115 338 -151 -3 -151 -3 -83
-250 c-46 -137 -91 -265 -101 -283 -21 -41 -78 -72 -132 -72 -75 0 -73 19 39
340 33 96 67 196 75 223 l14 47 -141 0 -140 0 -42 -42z"/>
</g>
<!-- <g fill="#ffffff" opacity="0.5" transform="translate(9207 4838) scale(1.09) translate(-9207 -4838)"> -->
<g fill="#ffffff" opacity="0.5" transform="translate(9207 4838) scale(1.2) translate(-8907 -4838)">
<path d="M5810 4968 c-39 -9 -42 -12 -27 -23 16 -12 16 -19 -8 -134 -14 -67
-28 -128 -32 -136 -4 -11 3 -15 26 -15 25 0 32 5 37 28 19 88 43 132 71 132
16 0 16 -10 -1 -80 -16 -67 -12 -80 23 -80 32 0 79 29 49 30 -21 0 -22 19 -6
89 9 40 9 53 -2 66 -18 21 -50 19 -77 -7 -30 -28 -30 -22 2 120 3 12 2 22 -2
21 -5 -1 -28 -6 -53 -11z"/>
<path d="M6917 4968 c-31 -8 -35 -12 -23 -22 14 -10 12 -26 -14 -144 -17 -73
-30 -135 -30 -137 0 -3 13 -5 29 -5 25 0 30 4 36 38 3 20 15 56 25 80 10 23
15 42 11 42 -5 0 -2 28 5 63 15 71 17 97 7 96 -5 -1 -25 -6 -46 -11z"/>
<path d="M7817 4967 c-28 -7 -35 -12 -27 -21 7 -9 1 -53 -20 -145 -17 -73 -30
-134 -30 -137 0 -2 13 -4 29 -4 28 0 30 3 37 45 7 51 34 64 34 17 0 -51 17
-61 94 -59 l70 2 11 52 c14 61 39 103 62 103 13 0 14 -7 8 -42 -5 -24 -9 -59
-9 -78 -1 -32 2 -35 30 -38 19 -2 36 3 44 12 10 13 10 16 -5 16 -14 0 -16 6
-9 43 5 23 8 60 9 82 0 35 -3 40 -24 43 -13 2 -37 -6 -53 -18 l-30 -22 6 28
c4 16 10 53 15 82 7 46 6 52 -8 48 -9 -3 -28 -8 -44 -12 -22 -5 -25 -9 -16
-20 12 -15 12 -16 -27 -195 -13 -56 -18 -66 -33 -62 -10 2 -27 27 -38 54 l-21
49 23 17 c12 10 31 23 41 30 16 10 13 12 -23 12 -31 1 -41 -3 -37 -12 4 -13
-42 -65 -50 -56 -2 2 5 42 15 87 25 106 24 111 -24 99z"/>
<path d="M9117 4968 c-31 -8 -35 -12 -23 -22 13 -10 11 -27 -14 -141 -17 -71
-30 -134 -30 -138 0 -5 12 -7 27 -5 24 3 29 9 39 54 13 61 40 104 64 104 16 0
17 -5 5 -67 -7 -37 -10 -73 -8 -80 8 -21 83 -14 83 8 0 5 -7 9 -16 9 -11 0
-14 5 -9 17 3 10 9 46 12 80 6 61 5 62 -21 69 -20 5 -36 1 -58 -16 -27 -20
-29 -20 -25 -4 3 11 8 39 12 64 4 25 9 53 11 63 6 19 5 19 -49 5z"/>
<path d="M10897 4968 c-31 -8 -35 -12 -23 -22 14 -10 12 -26 -14 -140 -17 -70
-33 -133 -36 -138 -4 -5 8 -8 27 -6 31 3 35 7 43 46 5 23 12 42 16 42 5 0 14
-19 22 -42 11 -36 18 -44 42 -46 36 -4 56 13 34 30 -8 7 -22 32 -31 55 -16 42
-16 42 10 62 14 12 32 21 39 21 8 0 14 5 14 10 0 6 -18 10 -40 10 -29 0 -38
-3 -34 -14 3 -8 -8 -23 -27 -37 -30 -21 -32 -21 -25 -3 8 19 36 157 36 175 0
10 -2 10 -53 -3z"/>
<path d="M11097 4968 c-32 -9 -35 -12 -22 -22 13 -10 12 -24 -10 -131 -14 -66
-28 -128 -31 -137 -4 -15 1 -18 25 -18 25 0 32 5 37 28 20 90 43 132 72 132
11 0 13 -8 6 -37 -4 -21 -8 -56 -8 -78 -1 -35 2 -40 24 -43 14 -2 34 4 45 12
18 14 18 15 3 16 -21 0 -22 19 -6 89 9 40 9 53 -2 66 -17 21 -42 19 -73 -5
-14 -11 -27 -20 -30 -20 -3 0 1 26 9 58 15 64 18 103 7 101 -5 -1 -25 -6 -46
-11z"/>
<path d="M11692 4970 c-34 -8 -54 -20 -34 -20 17 0 15 -33 -13 -150 -32 -136
-32 -140 4 -140 27 0 29 3 36 47 8 58 29 99 55 113 18 10 20 8 20 -22 0 -18
-4 -49 -10 -68 -5 -19 -7 -43 -4 -52 7 -22 52 -24 80 -3 18 14 18 14 -4 15
-21 0 -22 3 -15 38 4 20 8 57 8 82 0 40 -3 45 -24 48 -13 2 -36 -6 -52 -17
-16 -12 -29 -19 -29 -17 0 5 15 84 26 134 5 24 5 24 -44 12z"/>
<path d="M12752 4969 c-26 -8 -31 -13 -23 -23 8 -10 3 -46 -19 -140 -16 -70
-30 -131 -30 -137 0 -5 13 -9 29 -9 26 0 30 4 36 40 9 55 21 58 37 8 14 -45
30 -55 74 -44 25 7 33 26 10 26 -7 0 -23 22 -34 49 l-20 49 22 21 c12 12 30
21 39 21 9 0 17 5 17 10 0 6 -18 10 -40 10 -30 0 -38 -3 -34 -14 5 -13 -35
-51 -43 -42 -3 2 3 41 11 86 9 45 16 86 16 91 0 11 -4 10 -48 -2z"/>
<path d="M9558 4963 c-20 -5 -25 -25 -34 -130 -4 -54 -3 -83 3 -83 17 0 78
182 69 205 -5 15 -9 16 -38 8z"/>
<path d="M9683 4962 c-12 -7 -35 -190 -26 -204 12 -20 22 0 51 95 18 56 32
106 32 110 0 9 -42 9 -57 -1z"/>
<path d="M5484 4942 c15 -18 14 -26 -9 -133 -14 -63 -32 -119 -40 -125 -26
-20 -17 -24 50 -24 68 0 76 4 48 25 -14 10 -15 20 -7 55 5 24 14 45 19 47 6 2
23 -18 38 -44 26 -42 27 -48 13 -59 -28 -20 -18 -24 59 -24 70 0 99 11 57 22
-11 3 -40 40 -65 82 l-47 77 37 35 c21 19 55 42 75 52 21 9 38 20 38 25 0 4
-25 7 -55 7 -51 0 -73 -12 -42 -23 11 -4 -88 -105 -104 -107 -14 0 14 86 32
102 11 9 19 19 19 22 0 3 -30 6 -67 6 -63 0 -65 -1 -49 -18z"/>
<path d="M9903 4946 c21 -16 21 -38 -3 -151 -15 -74 -23 -93 -47 -112 l-28
-23 58 0 c55 0 74 11 41 24 -14 5 -16 16 -11 59 4 28 12 72 20 96 l12 44 58
-111 c32 -62 64 -112 72 -112 7 0 16 17 20 38 26 142 49 217 73 239 l25 23
-59 0 c-58 0 -59 -1 -36 -18 22 -17 22 -18 7 -96 -8 -44 -17 -81 -20 -84 -3
-3 -26 40 -53 96 l-47 102 -50 0 c-44 -1 -48 -2 -32 -14z"/>
<path d="M10771 4947 c-18 -23 -2 -49 28 -45 20 2 26 8 26 28 0 29 -34 40 -54
17z"/>
<path d="M11904 4946 c-10 -26 4 -48 28 -44 17 2 23 10 23 28 0 18 -6 26 -23
28 -13 2 -25 -3 -28 -12z"/>
<path d="M11539 4885 c-12 -19 -27 -35 -35 -35 -8 0 -14 -4 -14 -10 0 -5 7
-10 15 -10 18 0 18 5 -1 -59 -8 -29 -14 -64 -12 -79 2 -22 9 -28 35 -30 34 -3
73 12 73 29 0 5 -11 7 -25 3 -30 -7 -31 5 -12 81 10 39 18 51 35 53 25 4 30
22 6 22 -13 0 -15 8 -12 35 3 29 1 35 -14 35 -11 0 -28 -15 -39 -35z"/>
<path d="M6041 4847 c-61 -31 -87 -114 -51 -160 55 -70 180 -3 180 97 0 58
-71 93 -129 63z m67 -44 c4 -39 -31 -123 -51 -123 -32 0 -35 56 -7 118 24 53
53 55 58 5z"/>
<path d="M6225 4853 c-46 -10 -49 -13 -30 -27 17 -12 17 -16 2 -79 -22 -86
-22 -87 11 -87 26 0 29 4 40 59 13 60 55 122 72 105 6 -6 3 -36 -6 -74 -8 -35
-12 -70 -10 -77 6 -15 54 -17 76 -3 13 9 13 12 -1 20 -14 8 -15 17 -7 54 5 25
8 60 6 78 -4 42 -37 50 -80 18 l-30 -22 7 21 c7 22 -3 25 -50 14z"/>
<path d="M6472 4840 c-17 -11 -38 -33 -47 -49 -18 -36 -20 -102 -3 -119 15
-15 53 -16 78 -2 13 7 21 7 25 0 11 -19 85 -9 85 11 0 5 -7 9 -15 9 -18 0 -18
7 0 90 7 36 12 66 10 68 -2 2 -26 5 -53 7 -35 3 -58 -2 -80 -15z m71 -44 c-3
-45 -33 -101 -54 -101 -21 0 -18 85 5 119 26 40 52 30 49 -18z"/>
<path d="M6675 4853 c-46 -10 -49 -13 -29 -27 18 -13 18 -16 0 -107 -10 -52
-25 -107 -32 -123 -8 -16 -14 -31 -14 -33 0 -1 25 -3 57 -3 54 0 56 1 39 19
-13 14 -16 28 -11 53 6 32 8 33 44 30 97 -9 159 142 79 192 -13 8 -26 7 -48
-1 -16 -6 -30 -7 -30 -2 0 9 -20 10 -55 2z m103 -69 c4 -61 -50 -132 -73 -95
-10 17 7 91 27 117 27 33 42 26 46 -22z"/>
<path d="M6978 4849 c-24 -14 -23 -29 3 -29 15 0 19 -5 16 -17 -18 -65 -28
-124 -22 -133 11 -18 85 -9 85 11 0 5 -7 9 -15 9 -18 0 -18 -1 0 71 12 44 13
64 5 79 -12 22 -44 26 -72 9z"/>
<path d="M7155 4850 c-36 -14 -66 -57 -72 -99 -12 -90 85 -125 153 -57 29 29
34 41 34 80 0 72 -48 104 -115 76z m60 -31 c8 -24 -10 -95 -30 -123 -9 -11
-20 -16 -31 -12 -13 5 -16 16 -12 56 8 79 57 132 73 79z"/>
<path d="M8234 4841 c-44 -27 -71 -98 -52 -137 17 -36 56 -51 104 -38 45 11
74 47 81 102 5 34 2 44 -20 66 -31 31 -70 33 -113 7z m74 -43 c6 -67 -44 -145
-69 -107 -11 17 -2 84 18 122 20 40 47 32 51 -15z"/>
<path d="M8425 4853 c-30 -7 -42 -22 -26 -32 11 -7 10 -20 -3 -79 -9 -39 -16
-73 -16 -76 0 -4 13 -6 29 -6 27 0 30 4 36 43 10 56 41 117 62 117 13 0 15 -7
8 -47 -17 -108 -10 -124 51 -109 27 7 33 26 8 26 -13 0 -14 6 -8 33 5 17 9 55
9 82 0 45 -2 50 -24 53 -13 2 -37 -6 -53 -18 l-30 -22 7 21 c7 22 -4 25 -50
14z"/>
<path d="M8680 4848 c-53 -28 -86 -115 -64 -172 8 -21 67 -21 85 0 11 14 13
14 21 0 9 -16 44 -21 72 -10 20 8 21 24 1 24 -19 0 -19 9 0 89 9 35 14 65 13
66 -13 12 -107 13 -128 3z m63 -53 c-5 -75 -64 -135 -71 -71 -5 40 5 73 29 97
29 29 44 19 42 -26z"/>
<path d="M8875 4853 c-46 -10 -49 -13 -30 -27 18 -13 18 -17 -4 -122 -13 -60
-30 -117 -39 -126 -14 -17 -12 -18 41 -18 32 0 57 5 57 10 0 6 -4 10 -10 10
-12 0 -13 50 -1 69 5 8 16 11 26 8 26 -11 83 19 105 55 24 40 27 110 4 132
-18 18 -47 20 -75 6 -13 -7 -19 -7 -19 0 0 10 -18 11 -55 3z m103 -63 c3 -46
-27 -105 -53 -105 -17 0 -20 6 -17 44 6 90 64 140 70 61z"/>
<path d="M9344 4844 c-39 -19 -64 -62 -64 -112 0 -49 26 -72 80 -72 89 0 145
116 85 175 -28 28 -57 31 -101 9z m64 -55 c3 -50 -26 -109 -54 -109 -24 0 -15
111 11 140 27 29 40 20 43 -31z"/>
<path d="M10221 4843 c-21 -11 -40 -31 -52 -57 -22 -48 -23 -66 -7 -100 15
-33 43 -42 73 -22 13 9 27 16 30 16 7 0 0 -28 -17 -72 -14 -38 -46 -37 -61 2
-13 33 -33 36 -51 7 -9 -15 -6 -22 14 -39 19 -16 34 -19 69 -15 62 7 87 36
110 132 34 140 36 155 15 155 -11 0 -35 3 -54 5 -22 4 -47 -1 -69 -12z m73
-41 c-2 -41 -36 -106 -57 -110 -25 -5 -23 74 3 116 27 43 56 40 54 -6z"/>
<path d="M10450 4853 c-31 -11 -71 -59 -81 -97 -15 -54 11 -90 68 -94 40 -3
97 28 81 44 -4 4 -14 1 -22 -5 -23 -19 -60 -10 -64 15 -2 17 3 23 31 28 61 11
98 71 65 104 -12 12 -51 15 -78 5z m35 -23 c10 -16 -4 -49 -27 -61 -29 -15
-34 -4 -15 36 17 35 31 43 42 25z"/>
<path d="M10603 4850 c-23 -9 -43 -39 -43 -64 0 -8 20 -29 46 -46 46 -32 52
-52 19 -58 -10 -3 -27 7 -40 24 l-22 28 -12 -23 c-18 -33 2 -51 55 -51 92 0
123 75 49 119 -22 13 -35 28 -35 41 0 27 36 27 45 0 9 -28 35 -25 35 4 0 34
-45 47 -97 26z"/>
<path d="M10760 4853 c-8 -2 -21 -7 -29 -9 -11 -4 -10 -7 4 -18 17 -12 17 -16
1 -80 -9 -37 -14 -71 -11 -77 9 -14 59 -11 81 6 18 14 18 14 0 15 -20 0 -20
-9 1 133 6 38 -4 45 -47 30z"/>
<path d="M11333 4846 c-20 -9 -40 -30 -52 -55 -47 -92 -6 -161 72 -120 16 9
22 9 25 0 5 -16 55 -14 78 4 17 13 17 14 2 15 -22 0 -23 24 -4 103 13 56 13
57 -9 57 -12 0 -35 2 -51 5 -16 3 -43 -1 -61 -9z m65 -39 c3 -25 -28 -100 -47
-111 -17 -11 -33 23 -27 58 8 39 43 89 60 83 6 -2 12 -15 14 -30z"/>
<path d="M11883 4853 c-26 -5 -27 -7 -11 -32 8 -14 8 -29 0 -64 -20 -77 -16
-97 16 -97 15 0 34 5 42 10 13 9 13 11 1 19 -12 8 -13 20 -3 74 19 103 19 102
-45 90z"/>
<path d="M12135 4848 c-49 -28 -47 -63 6 -109 43 -36 46 -59 8 -59 -11 0 -24
11 -31 25 -15 33 -33 27 -33 -11 0 -27 3 -29 46 -32 93 -6 131 67 59 116 -37
25 -46 55 -18 60 12 2 22 -6 29 -25 10 -27 11 -27 25 -9 19 26 18 33 -5 46
-25 13 -61 12 -86 -2z"/>
<path d="M12324 4850 c-39 -15 -74 -68 -74 -111 0 -51 27 -79 78 -79 44 0 76
20 97 60 45 87 -16 165 -101 130z m54 -55 c4 -49 -24 -115 -50 -115 -26 0 -25
83 2 128 26 42 44 37 48 -13z"/>
<path d="M12495 4851 c-16 -3 -29 -9 -27 -13 1 -5 5 -15 9 -24 5 -14 -11 -106
-24 -141 -4 -9 5 -13 26 -13 25 0 32 5 37 28 18 81 26 100 49 122 31 29 40 12
26 -51 -6 -24 -11 -56 -11 -71 0 -25 4 -28 34 -28 18 0 39 7 46 15 10 12 10
15 -4 15 -19 0 -20 20 -4 89 9 40 9 53 -2 66 -17 21 -56 19 -80 -5 l-20 -20 0
20 c0 21 -5 22 -55 11z"/>
<path d="M12929 4821 c-35 -35 -39 -44 -39 -89 0 -40 4 -53 19 -62 31 -16 87
-12 112 9 31 25 21 34 -20 18 -29 -11 -34 -10 -46 7 -18 24 -13 32 27 40 60
12 98 72 66 104 -7 7 -27 12 -46 12 -27 0 -43 -9 -73 -39z m76 9 c10 -16 -4
-49 -27 -61 -29 -15 -34 -4 -15 36 17 35 31 43 42 25z"/>
<path d="M7406 4784 c-3 -9 -6 -18 -6 -20 0 -2 45 -4 100 -4 89 0 100 2 110
20 10 19 8 20 -94 20 -85 0 -105 -3 -110 -16z"/>
<path d="M9491 4707 c-18 -23 -2 -49 28 -45 20 2 26 8 26 28 0 29 -34 40 -54
17z"/>
<path d="M9630 4705 c-16 -19 -6 -45 18 -45 25 0 44 23 36 44 -8 20 -38 21
-54 1z"/>
</g>
</g>
</svg>
